M48
; DRILL file {KiCad 5.1.10} date Sun Jul  4 17:42:56 2021
; FORMAT={-:-/ absolute / metric / decimal}
; #@! TF.CreationDate,2021-07-04T17:42:56-04:00
; #@! TF.GenerationSoftware,Kicad,Pcbnew,5.1.10
; #@! TF.FileFunction,Plated,1,2,PTH
FMAT,2
METRIC
T1C0.400
T2C0.600
%
G90
G05
T1
X122.936Y-111.252
X125.476Y-111.252
X126.485Y-112.991
X127.508Y-112.993
X128.016Y-111.252
X130.556Y-111.252
X132.588Y-116.84
X133.985Y-81.28
X134.366Y-86.36
X134.874Y-107.442
X134.874Y-108.966
X136.017Y-111.76
X136.906Y-81.28
X137.668Y-113.919
X137.922Y-111.252
X138.795Y-85.381
X139.446Y-93.726
X139.446Y-95.123
X139.446Y-96.52
X139.783Y-111.843
X140.495Y-85.924
X140.843Y-93.726
X140.843Y-95.123
X140.843Y-96.52
X141.595Y-85.924
X141.732Y-82.423
X142.24Y-93.726
X142.24Y-95.123
X142.24Y-96.52
X146.295Y-86.614
X147.056Y-115.824
X147.056Y-117.149
X147.574Y-88.646
X147.748Y-79.909
X147.906Y-115.824
X147.911Y-117.149
X148.209Y-99.314
X148.756Y-115.824
X148.761Y-117.149
X149.606Y-115.824
X149.611Y-117.149
X150.114Y-84.836
X150.342Y-91.868
X150.456Y-115.824
X150.461Y-117.149
X151.061Y-85.159
X151.306Y-115.824
X151.311Y-117.149
X151.384Y-80.645
X151.638Y-105.664
X151.765Y-98.806
X152.156Y-115.824
X152.161Y-117.149
X152.273Y-81.28
X153.006Y-115.824
X153.011Y-117.149
X153.035Y-118.745
X153.713Y-81.746
X154.432Y-88.392
X154.712Y-81.691
X155.381Y-88.708
X158.707Y-87.927
X159.512Y-108.966
X159.512Y-112.014
X162.56Y-104.14
X162.56Y-108.966
X162.56Y-112.014
X167.753Y-99.822
X167.767Y-93.726
X167.767Y-95.25
X167.767Y-98.298
X167.767Y-102.87
X167.767Y-104.394
X167.797Y-101.343
X167.797Y-96.776
X169.164Y-116.586
X169.164Y-117.602
X169.164Y-118.618
T2
X145.706Y-116.054G85X145.706Y-117.554
G05
X145.706Y-119.784G85X145.706Y-120.584
G05
X154.356Y-116.054G85X154.356Y-117.554
G05
X154.356Y-119.784G85X154.356Y-120.584
G05
T0
M30
