G04 #@! TF.GenerationSoftware,KiCad,Pcbnew,5.1.10*
G04 #@! TF.CreationDate,2021-07-04T17:42:54-04:00*
G04 #@! TF.ProjectId,windpup,77696e64-7075-4702-9e6b-696361645f70,rev?*
G04 #@! TF.SameCoordinates,Original*
G04 #@! TF.FileFunction,Soldermask,Top*
G04 #@! TF.FilePolarity,Negative*
%FSLAX46Y46*%
G04 Gerber Fmt 4.6, Leading zero omitted, Abs format (unit mm)*
G04 Created by KiCad (PCBNEW 5.1.10) date 2021-07-04 17:42:54*
%MOMM*%
%LPD*%
G01*
G04 APERTURE LIST*
%ADD10C,0.100000*%
%ADD11C,0.250000*%
%ADD12R,4.300000X4.300000*%
%ADD13R,0.912500X0.850000*%
%ADD14C,0.900000*%
%ADD15R,1.200000X1.400000*%
%ADD16R,0.360000X0.250000*%
%ADD17R,0.700000X0.400000*%
%ADD18R,0.450000X1.750000*%
%ADD19R,1.846667X3.480000*%
%ADD20R,0.740000X2.400000*%
%ADD21O,0.900000X1.700000*%
%ADD22O,0.900000X2.400000*%
%ADD23C,0.650000*%
%ADD24R,0.900000X1.000000*%
%ADD25R,6.400000X5.800000*%
%ADD26R,2.200000X1.200000*%
G04 APERTURE END LIST*
D10*
G36*
X133858000Y-110490000D02*
G01*
X121412000Y-110490000D01*
X121412000Y-82042000D01*
X133858000Y-82042000D01*
X133858000Y-110490000D01*
G37*
X133858000Y-110490000D02*
X121412000Y-110490000D01*
X121412000Y-82042000D01*
X133858000Y-82042000D01*
X133858000Y-110490000D01*
D11*
X166917714Y-90114681D02*
X167584380Y-89817062D01*
X167108190Y-89376586D01*
X167584380Y-89055157D01*
X166917714Y-88590872D01*
X167584380Y-87912300D02*
X166917714Y-87828967D01*
X166584380Y-87787300D02*
X166632000Y-87888491D01*
X166679619Y-87799205D01*
X166632000Y-87698014D01*
X166584380Y-87787300D01*
X166679619Y-87799205D01*
X166917714Y-86876586D02*
X167584380Y-86959919D01*
X167012952Y-86888491D02*
X166965333Y-86787300D01*
X166917714Y-86590872D01*
X166917714Y-86305157D01*
X166965333Y-86120633D01*
X167060571Y-86037300D01*
X167584380Y-86102776D01*
X167584380Y-84293252D02*
X166584380Y-84168252D01*
X167536761Y-84287300D02*
X167584380Y-84483729D01*
X167584380Y-84864681D01*
X167536761Y-85049205D01*
X167489142Y-85138491D01*
X167393904Y-85221824D01*
X167108190Y-85186110D01*
X167012952Y-85078967D01*
X166965333Y-84977776D01*
X166917714Y-84781348D01*
X166917714Y-84400395D01*
X166965333Y-84215872D01*
X166917714Y-83257538D02*
X167917714Y-83382538D01*
X166965333Y-83263491D02*
X166917714Y-83067062D01*
X166917714Y-82686110D01*
X166965333Y-82501586D01*
X167012952Y-82412300D01*
X167108190Y-82328967D01*
X167393904Y-82364681D01*
X167489142Y-82471824D01*
X167536761Y-82573014D01*
X167584380Y-82769443D01*
X167584380Y-83150395D01*
X167536761Y-83334919D01*
X166917714Y-80590872D02*
X167584380Y-80674205D01*
X166917714Y-81448014D02*
X167441523Y-81513491D01*
X167536761Y-81430157D01*
X167584380Y-81245633D01*
X167584380Y-80959919D01*
X167536761Y-80763491D01*
X167489142Y-80662300D01*
X166917714Y-79638491D02*
X167917714Y-79763491D01*
X166965333Y-79644443D02*
X166917714Y-79448014D01*
X166917714Y-79067062D01*
X166965333Y-78882538D01*
X167012952Y-78793252D01*
X167108190Y-78709919D01*
X167393904Y-78745633D01*
X167489142Y-78852776D01*
X167536761Y-78953967D01*
X167584380Y-79150395D01*
X167584380Y-79531348D01*
X167536761Y-79715872D01*
D12*
X140875001Y-95094999D03*
D13*
X134295001Y-104952499D03*
X135795001Y-104952499D03*
X137295001Y-104952499D03*
X138795001Y-104952499D03*
X140295001Y-104952499D03*
X141795001Y-104952499D03*
X143295001Y-104952499D03*
X144795001Y-104952499D03*
X146295001Y-104952499D03*
X146295001Y-87477499D03*
X144795001Y-87477499D03*
X143295001Y-87477499D03*
X141795001Y-87477499D03*
X140295001Y-87477499D03*
X138795001Y-87477499D03*
X137295001Y-87477499D03*
X135795001Y-87477499D03*
X134295001Y-87477499D03*
D14*
X141929000Y-110577000D03*
X148729000Y-110577000D03*
D15*
X145329000Y-112777000D03*
X147829000Y-108377000D03*
X142829000Y-108377000D03*
G36*
G01*
X153507000Y-109942000D02*
X155357000Y-109942000D01*
G75*
G02*
X155607000Y-110192000I0J-250000D01*
G01*
X155607000Y-111192000D01*
G75*
G02*
X155357000Y-111442000I-250000J0D01*
G01*
X153507000Y-111442000D01*
G75*
G02*
X153257000Y-111192000I0J250000D01*
G01*
X153257000Y-110192000D01*
G75*
G02*
X153507000Y-109942000I250000J0D01*
G01*
G37*
G36*
G01*
X153507000Y-106692000D02*
X155357000Y-106692000D01*
G75*
G02*
X155607000Y-106942000I0J-250000D01*
G01*
X155607000Y-107942000D01*
G75*
G02*
X155357000Y-108192000I-250000J0D01*
G01*
X153507000Y-108192000D01*
G75*
G02*
X153257000Y-107942000I0J250000D01*
G01*
X153257000Y-106942000D01*
G75*
G02*
X153507000Y-106692000I250000J0D01*
G01*
G37*
G36*
G01*
X157422001Y-117726000D02*
X156521999Y-117726000D01*
G75*
G02*
X156272000Y-117476001I0J249999D01*
G01*
X156272000Y-116775999D01*
G75*
G02*
X156521999Y-116526000I249999J0D01*
G01*
X157422001Y-116526000D01*
G75*
G02*
X157672000Y-116775999I0J-249999D01*
G01*
X157672000Y-117476001D01*
G75*
G02*
X157422001Y-117726000I-249999J0D01*
G01*
G37*
G36*
G01*
X157422001Y-119726000D02*
X156521999Y-119726000D01*
G75*
G02*
X156272000Y-119476001I0J249999D01*
G01*
X156272000Y-118775999D01*
G75*
G02*
X156521999Y-118526000I249999J0D01*
G01*
X157422001Y-118526000D01*
G75*
G02*
X157672000Y-118775999I0J-249999D01*
G01*
X157672000Y-119476001D01*
G75*
G02*
X157422001Y-119726000I-249999J0D01*
G01*
G37*
G36*
G01*
X143706001Y-117694000D02*
X142805999Y-117694000D01*
G75*
G02*
X142556000Y-117444001I0J249999D01*
G01*
X142556000Y-116743999D01*
G75*
G02*
X142805999Y-116494000I249999J0D01*
G01*
X143706001Y-116494000D01*
G75*
G02*
X143956000Y-116743999I0J-249999D01*
G01*
X143956000Y-117444001D01*
G75*
G02*
X143706001Y-117694000I-249999J0D01*
G01*
G37*
G36*
G01*
X143706001Y-119694000D02*
X142805999Y-119694000D01*
G75*
G02*
X142556000Y-119444001I0J249999D01*
G01*
X142556000Y-118743999D01*
G75*
G02*
X142805999Y-118494000I249999J0D01*
G01*
X143706001Y-118494000D01*
G75*
G02*
X143956000Y-118743999I0J-249999D01*
G01*
X143956000Y-119444001D01*
G75*
G02*
X143706001Y-119694000I-249999J0D01*
G01*
G37*
D16*
X154344000Y-113284000D03*
X153504000Y-113284000D03*
G36*
G01*
X151163000Y-106854500D02*
X152113000Y-106854500D01*
G75*
G02*
X152363000Y-107104500I0J-250000D01*
G01*
X152363000Y-107779500D01*
G75*
G02*
X152113000Y-108029500I-250000J0D01*
G01*
X151163000Y-108029500D01*
G75*
G02*
X150913000Y-107779500I0J250000D01*
G01*
X150913000Y-107104500D01*
G75*
G02*
X151163000Y-106854500I250000J0D01*
G01*
G37*
G36*
G01*
X151163000Y-108929500D02*
X152113000Y-108929500D01*
G75*
G02*
X152363000Y-109179500I0J-250000D01*
G01*
X152363000Y-109854500D01*
G75*
G02*
X152113000Y-110104500I-250000J0D01*
G01*
X151163000Y-110104500D01*
G75*
G02*
X150913000Y-109854500I0J250000D01*
G01*
X150913000Y-109179500D01*
G75*
G02*
X151163000Y-108929500I250000J0D01*
G01*
G37*
D17*
X150749000Y-99806000D03*
X150749000Y-98806000D03*
X149249000Y-99806000D03*
X150749000Y-99306000D03*
X149249000Y-98806000D03*
X149249000Y-99306000D03*
G36*
G01*
X162480500Y-90899000D02*
X162480500Y-89949000D01*
G75*
G02*
X162730500Y-89699000I250000J0D01*
G01*
X163405500Y-89699000D01*
G75*
G02*
X163655500Y-89949000I0J-250000D01*
G01*
X163655500Y-90899000D01*
G75*
G02*
X163405500Y-91149000I-250000J0D01*
G01*
X162730500Y-91149000D01*
G75*
G02*
X162480500Y-90899000I0J250000D01*
G01*
G37*
G36*
G01*
X160405500Y-90899000D02*
X160405500Y-89949000D01*
G75*
G02*
X160655500Y-89699000I250000J0D01*
G01*
X161330500Y-89699000D01*
G75*
G02*
X161580500Y-89949000I0J-250000D01*
G01*
X161580500Y-90899000D01*
G75*
G02*
X161330500Y-91149000I-250000J0D01*
G01*
X160655500Y-91149000D01*
G75*
G02*
X160405500Y-90899000I0J250000D01*
G01*
G37*
G36*
G01*
X161623500Y-82837000D02*
X161623500Y-83787000D01*
G75*
G02*
X161373500Y-84037000I-250000J0D01*
G01*
X160698500Y-84037000D01*
G75*
G02*
X160448500Y-83787000I0J250000D01*
G01*
X160448500Y-82837000D01*
G75*
G02*
X160698500Y-82587000I250000J0D01*
G01*
X161373500Y-82587000D01*
G75*
G02*
X161623500Y-82837000I0J-250000D01*
G01*
G37*
G36*
G01*
X163698500Y-82837000D02*
X163698500Y-83787000D01*
G75*
G02*
X163448500Y-84037000I-250000J0D01*
G01*
X162773500Y-84037000D01*
G75*
G02*
X162523500Y-83787000I0J250000D01*
G01*
X162523500Y-82837000D01*
G75*
G02*
X162773500Y-82587000I250000J0D01*
G01*
X163448500Y-82587000D01*
G75*
G02*
X163698500Y-82837000I0J-250000D01*
G01*
G37*
G36*
G01*
X157538000Y-80551000D02*
X157538000Y-81501000D01*
G75*
G02*
X157288000Y-81751000I-250000J0D01*
G01*
X156613000Y-81751000D01*
G75*
G02*
X156363000Y-81501000I0J250000D01*
G01*
X156363000Y-80551000D01*
G75*
G02*
X156613000Y-80301000I250000J0D01*
G01*
X157288000Y-80301000D01*
G75*
G02*
X157538000Y-80551000I0J-250000D01*
G01*
G37*
G36*
G01*
X159613000Y-80551000D02*
X159613000Y-81501000D01*
G75*
G02*
X159363000Y-81751000I-250000J0D01*
G01*
X158688000Y-81751000D01*
G75*
G02*
X158438000Y-81501000I0J250000D01*
G01*
X158438000Y-80551000D01*
G75*
G02*
X158688000Y-80301000I250000J0D01*
G01*
X159363000Y-80301000D01*
G75*
G02*
X159613000Y-80551000I0J-250000D01*
G01*
G37*
G36*
G01*
X157284000Y-92235000D02*
X157284000Y-93185000D01*
G75*
G02*
X157034000Y-93435000I-250000J0D01*
G01*
X156359000Y-93435000D01*
G75*
G02*
X156109000Y-93185000I0J250000D01*
G01*
X156109000Y-92235000D01*
G75*
G02*
X156359000Y-91985000I250000J0D01*
G01*
X157034000Y-91985000D01*
G75*
G02*
X157284000Y-92235000I0J-250000D01*
G01*
G37*
G36*
G01*
X159359000Y-92235000D02*
X159359000Y-93185000D01*
G75*
G02*
X159109000Y-93435000I-250000J0D01*
G01*
X158434000Y-93435000D01*
G75*
G02*
X158184000Y-93185000I0J250000D01*
G01*
X158184000Y-92235000D01*
G75*
G02*
X158434000Y-91985000I250000J0D01*
G01*
X159109000Y-91985000D01*
G75*
G02*
X159359000Y-92235000I0J-250000D01*
G01*
G37*
G36*
G01*
X161511000Y-86439500D02*
X160561000Y-86439500D01*
G75*
G02*
X160311000Y-86189500I0J250000D01*
G01*
X160311000Y-85514500D01*
G75*
G02*
X160561000Y-85264500I250000J0D01*
G01*
X161511000Y-85264500D01*
G75*
G02*
X161761000Y-85514500I0J-250000D01*
G01*
X161761000Y-86189500D01*
G75*
G02*
X161511000Y-86439500I-250000J0D01*
G01*
G37*
G36*
G01*
X161511000Y-88514500D02*
X160561000Y-88514500D01*
G75*
G02*
X160311000Y-88264500I0J250000D01*
G01*
X160311000Y-87589500D01*
G75*
G02*
X160561000Y-87339500I250000J0D01*
G01*
X161511000Y-87339500D01*
G75*
G02*
X161761000Y-87589500I0J-250000D01*
G01*
X161761000Y-88264500D01*
G75*
G02*
X161511000Y-88514500I-250000J0D01*
G01*
G37*
G36*
G01*
X167228000Y-97011500D02*
X167228000Y-96536500D01*
G75*
G02*
X167465500Y-96299000I237500J0D01*
G01*
X168040500Y-96299000D01*
G75*
G02*
X168278000Y-96536500I0J-237500D01*
G01*
X168278000Y-97011500D01*
G75*
G02*
X168040500Y-97249000I-237500J0D01*
G01*
X167465500Y-97249000D01*
G75*
G02*
X167228000Y-97011500I0J237500D01*
G01*
G37*
G36*
G01*
X165478000Y-97011500D02*
X165478000Y-96536500D01*
G75*
G02*
X165715500Y-96299000I237500J0D01*
G01*
X166290500Y-96299000D01*
G75*
G02*
X166528000Y-96536500I0J-237500D01*
G01*
X166528000Y-97011500D01*
G75*
G02*
X166290500Y-97249000I-237500J0D01*
G01*
X165715500Y-97249000D01*
G75*
G02*
X165478000Y-97011500I0J237500D01*
G01*
G37*
G36*
G01*
X167228000Y-100059500D02*
X167228000Y-99584500D01*
G75*
G02*
X167465500Y-99347000I237500J0D01*
G01*
X168040500Y-99347000D01*
G75*
G02*
X168278000Y-99584500I0J-237500D01*
G01*
X168278000Y-100059500D01*
G75*
G02*
X168040500Y-100297000I-237500J0D01*
G01*
X167465500Y-100297000D01*
G75*
G02*
X167228000Y-100059500I0J237500D01*
G01*
G37*
G36*
G01*
X165478000Y-100059500D02*
X165478000Y-99584500D01*
G75*
G02*
X165715500Y-99347000I237500J0D01*
G01*
X166290500Y-99347000D01*
G75*
G02*
X166528000Y-99584500I0J-237500D01*
G01*
X166528000Y-100059500D01*
G75*
G02*
X166290500Y-100297000I-237500J0D01*
G01*
X165715500Y-100297000D01*
G75*
G02*
X165478000Y-100059500I0J237500D01*
G01*
G37*
G36*
G01*
X167228000Y-104631500D02*
X167228000Y-104156500D01*
G75*
G02*
X167465500Y-103919000I237500J0D01*
G01*
X168040500Y-103919000D01*
G75*
G02*
X168278000Y-104156500I0J-237500D01*
G01*
X168278000Y-104631500D01*
G75*
G02*
X168040500Y-104869000I-237500J0D01*
G01*
X167465500Y-104869000D01*
G75*
G02*
X167228000Y-104631500I0J237500D01*
G01*
G37*
G36*
G01*
X165478000Y-104631500D02*
X165478000Y-104156500D01*
G75*
G02*
X165715500Y-103919000I237500J0D01*
G01*
X166290500Y-103919000D01*
G75*
G02*
X166528000Y-104156500I0J-237500D01*
G01*
X166528000Y-104631500D01*
G75*
G02*
X166290500Y-104869000I-237500J0D01*
G01*
X165715500Y-104869000D01*
G75*
G02*
X165478000Y-104631500I0J237500D01*
G01*
G37*
G36*
G01*
X167228000Y-103107500D02*
X167228000Y-102632500D01*
G75*
G02*
X167465500Y-102395000I237500J0D01*
G01*
X168040500Y-102395000D01*
G75*
G02*
X168278000Y-102632500I0J-237500D01*
G01*
X168278000Y-103107500D01*
G75*
G02*
X168040500Y-103345000I-237500J0D01*
G01*
X167465500Y-103345000D01*
G75*
G02*
X167228000Y-103107500I0J237500D01*
G01*
G37*
G36*
G01*
X165478000Y-103107500D02*
X165478000Y-102632500D01*
G75*
G02*
X165715500Y-102395000I237500J0D01*
G01*
X166290500Y-102395000D01*
G75*
G02*
X166528000Y-102632500I0J-237500D01*
G01*
X166528000Y-103107500D01*
G75*
G02*
X166290500Y-103345000I-237500J0D01*
G01*
X165715500Y-103345000D01*
G75*
G02*
X165478000Y-103107500I0J237500D01*
G01*
G37*
G36*
G01*
X167228000Y-101583500D02*
X167228000Y-101108500D01*
G75*
G02*
X167465500Y-100871000I237500J0D01*
G01*
X168040500Y-100871000D01*
G75*
G02*
X168278000Y-101108500I0J-237500D01*
G01*
X168278000Y-101583500D01*
G75*
G02*
X168040500Y-101821000I-237500J0D01*
G01*
X167465500Y-101821000D01*
G75*
G02*
X167228000Y-101583500I0J237500D01*
G01*
G37*
G36*
G01*
X165478000Y-101583500D02*
X165478000Y-101108500D01*
G75*
G02*
X165715500Y-100871000I237500J0D01*
G01*
X166290500Y-100871000D01*
G75*
G02*
X166528000Y-101108500I0J-237500D01*
G01*
X166528000Y-101583500D01*
G75*
G02*
X166290500Y-101821000I-237500J0D01*
G01*
X165715500Y-101821000D01*
G75*
G02*
X165478000Y-101583500I0J237500D01*
G01*
G37*
G36*
G01*
X167228000Y-98535500D02*
X167228000Y-98060500D01*
G75*
G02*
X167465500Y-97823000I237500J0D01*
G01*
X168040500Y-97823000D01*
G75*
G02*
X168278000Y-98060500I0J-237500D01*
G01*
X168278000Y-98535500D01*
G75*
G02*
X168040500Y-98773000I-237500J0D01*
G01*
X167465500Y-98773000D01*
G75*
G02*
X167228000Y-98535500I0J237500D01*
G01*
G37*
G36*
G01*
X165478000Y-98535500D02*
X165478000Y-98060500D01*
G75*
G02*
X165715500Y-97823000I237500J0D01*
G01*
X166290500Y-97823000D01*
G75*
G02*
X166528000Y-98060500I0J-237500D01*
G01*
X166528000Y-98535500D01*
G75*
G02*
X166290500Y-98773000I-237500J0D01*
G01*
X165715500Y-98773000D01*
G75*
G02*
X165478000Y-98535500I0J237500D01*
G01*
G37*
G36*
G01*
X167228000Y-95487500D02*
X167228000Y-95012500D01*
G75*
G02*
X167465500Y-94775000I237500J0D01*
G01*
X168040500Y-94775000D01*
G75*
G02*
X168278000Y-95012500I0J-237500D01*
G01*
X168278000Y-95487500D01*
G75*
G02*
X168040500Y-95725000I-237500J0D01*
G01*
X167465500Y-95725000D01*
G75*
G02*
X167228000Y-95487500I0J237500D01*
G01*
G37*
G36*
G01*
X165478000Y-95487500D02*
X165478000Y-95012500D01*
G75*
G02*
X165715500Y-94775000I237500J0D01*
G01*
X166290500Y-94775000D01*
G75*
G02*
X166528000Y-95012500I0J-237500D01*
G01*
X166528000Y-95487500D01*
G75*
G02*
X166290500Y-95725000I-237500J0D01*
G01*
X165715500Y-95725000D01*
G75*
G02*
X165478000Y-95487500I0J237500D01*
G01*
G37*
G36*
G01*
X165478000Y-93963500D02*
X165478000Y-93488500D01*
G75*
G02*
X165715500Y-93251000I237500J0D01*
G01*
X166290500Y-93251000D01*
G75*
G02*
X166528000Y-93488500I0J-237500D01*
G01*
X166528000Y-93963500D01*
G75*
G02*
X166290500Y-94201000I-237500J0D01*
G01*
X165715500Y-94201000D01*
G75*
G02*
X165478000Y-93963500I0J237500D01*
G01*
G37*
G36*
G01*
X167228000Y-93963500D02*
X167228000Y-93488500D01*
G75*
G02*
X167465500Y-93251000I237500J0D01*
G01*
X168040500Y-93251000D01*
G75*
G02*
X168278000Y-93488500I0J-237500D01*
G01*
X168278000Y-93963500D01*
G75*
G02*
X168040500Y-94201000I-237500J0D01*
G01*
X167465500Y-94201000D01*
G75*
G02*
X167228000Y-93963500I0J237500D01*
G01*
G37*
G36*
G01*
X162653000Y-96235000D02*
X162653000Y-96035000D01*
G75*
G02*
X162753000Y-95935000I100000J0D01*
G01*
X164028000Y-95935000D01*
G75*
G02*
X164128000Y-96035000I0J-100000D01*
G01*
X164128000Y-96235000D01*
G75*
G02*
X164028000Y-96335000I-100000J0D01*
G01*
X162753000Y-96335000D01*
G75*
G02*
X162653000Y-96235000I0J100000D01*
G01*
G37*
G36*
G01*
X162653000Y-96885000D02*
X162653000Y-96685000D01*
G75*
G02*
X162753000Y-96585000I100000J0D01*
G01*
X164028000Y-96585000D01*
G75*
G02*
X164128000Y-96685000I0J-100000D01*
G01*
X164128000Y-96885000D01*
G75*
G02*
X164028000Y-96985000I-100000J0D01*
G01*
X162753000Y-96985000D01*
G75*
G02*
X162653000Y-96885000I0J100000D01*
G01*
G37*
G36*
G01*
X162653000Y-97535000D02*
X162653000Y-97335000D01*
G75*
G02*
X162753000Y-97235000I100000J0D01*
G01*
X164028000Y-97235000D01*
G75*
G02*
X164128000Y-97335000I0J-100000D01*
G01*
X164128000Y-97535000D01*
G75*
G02*
X164028000Y-97635000I-100000J0D01*
G01*
X162753000Y-97635000D01*
G75*
G02*
X162653000Y-97535000I0J100000D01*
G01*
G37*
G36*
G01*
X162653000Y-98185000D02*
X162653000Y-97985000D01*
G75*
G02*
X162753000Y-97885000I100000J0D01*
G01*
X164028000Y-97885000D01*
G75*
G02*
X164128000Y-97985000I0J-100000D01*
G01*
X164128000Y-98185000D01*
G75*
G02*
X164028000Y-98285000I-100000J0D01*
G01*
X162753000Y-98285000D01*
G75*
G02*
X162653000Y-98185000I0J100000D01*
G01*
G37*
G36*
G01*
X162653000Y-98835000D02*
X162653000Y-98635000D01*
G75*
G02*
X162753000Y-98535000I100000J0D01*
G01*
X164028000Y-98535000D01*
G75*
G02*
X164128000Y-98635000I0J-100000D01*
G01*
X164128000Y-98835000D01*
G75*
G02*
X164028000Y-98935000I-100000J0D01*
G01*
X162753000Y-98935000D01*
G75*
G02*
X162653000Y-98835000I0J100000D01*
G01*
G37*
G36*
G01*
X162653000Y-99485000D02*
X162653000Y-99285000D01*
G75*
G02*
X162753000Y-99185000I100000J0D01*
G01*
X164028000Y-99185000D01*
G75*
G02*
X164128000Y-99285000I0J-100000D01*
G01*
X164128000Y-99485000D01*
G75*
G02*
X164028000Y-99585000I-100000J0D01*
G01*
X162753000Y-99585000D01*
G75*
G02*
X162653000Y-99485000I0J100000D01*
G01*
G37*
G36*
G01*
X162653000Y-100135000D02*
X162653000Y-99935000D01*
G75*
G02*
X162753000Y-99835000I100000J0D01*
G01*
X164028000Y-99835000D01*
G75*
G02*
X164128000Y-99935000I0J-100000D01*
G01*
X164128000Y-100135000D01*
G75*
G02*
X164028000Y-100235000I-100000J0D01*
G01*
X162753000Y-100235000D01*
G75*
G02*
X162653000Y-100135000I0J100000D01*
G01*
G37*
G36*
G01*
X162653000Y-100785000D02*
X162653000Y-100585000D01*
G75*
G02*
X162753000Y-100485000I100000J0D01*
G01*
X164028000Y-100485000D01*
G75*
G02*
X164128000Y-100585000I0J-100000D01*
G01*
X164128000Y-100785000D01*
G75*
G02*
X164028000Y-100885000I-100000J0D01*
G01*
X162753000Y-100885000D01*
G75*
G02*
X162653000Y-100785000I0J100000D01*
G01*
G37*
G36*
G01*
X162653000Y-101435000D02*
X162653000Y-101235000D01*
G75*
G02*
X162753000Y-101135000I100000J0D01*
G01*
X164028000Y-101135000D01*
G75*
G02*
X164128000Y-101235000I0J-100000D01*
G01*
X164128000Y-101435000D01*
G75*
G02*
X164028000Y-101535000I-100000J0D01*
G01*
X162753000Y-101535000D01*
G75*
G02*
X162653000Y-101435000I0J100000D01*
G01*
G37*
G36*
G01*
X162653000Y-102085000D02*
X162653000Y-101885000D01*
G75*
G02*
X162753000Y-101785000I100000J0D01*
G01*
X164028000Y-101785000D01*
G75*
G02*
X164128000Y-101885000I0J-100000D01*
G01*
X164128000Y-102085000D01*
G75*
G02*
X164028000Y-102185000I-100000J0D01*
G01*
X162753000Y-102185000D01*
G75*
G02*
X162653000Y-102085000I0J100000D01*
G01*
G37*
G36*
G01*
X156928000Y-102085000D02*
X156928000Y-101885000D01*
G75*
G02*
X157028000Y-101785000I100000J0D01*
G01*
X158303000Y-101785000D01*
G75*
G02*
X158403000Y-101885000I0J-100000D01*
G01*
X158403000Y-102085000D01*
G75*
G02*
X158303000Y-102185000I-100000J0D01*
G01*
X157028000Y-102185000D01*
G75*
G02*
X156928000Y-102085000I0J100000D01*
G01*
G37*
G36*
G01*
X156928000Y-101435000D02*
X156928000Y-101235000D01*
G75*
G02*
X157028000Y-101135000I100000J0D01*
G01*
X158303000Y-101135000D01*
G75*
G02*
X158403000Y-101235000I0J-100000D01*
G01*
X158403000Y-101435000D01*
G75*
G02*
X158303000Y-101535000I-100000J0D01*
G01*
X157028000Y-101535000D01*
G75*
G02*
X156928000Y-101435000I0J100000D01*
G01*
G37*
G36*
G01*
X156928000Y-100785000D02*
X156928000Y-100585000D01*
G75*
G02*
X157028000Y-100485000I100000J0D01*
G01*
X158303000Y-100485000D01*
G75*
G02*
X158403000Y-100585000I0J-100000D01*
G01*
X158403000Y-100785000D01*
G75*
G02*
X158303000Y-100885000I-100000J0D01*
G01*
X157028000Y-100885000D01*
G75*
G02*
X156928000Y-100785000I0J100000D01*
G01*
G37*
G36*
G01*
X156928000Y-100135000D02*
X156928000Y-99935000D01*
G75*
G02*
X157028000Y-99835000I100000J0D01*
G01*
X158303000Y-99835000D01*
G75*
G02*
X158403000Y-99935000I0J-100000D01*
G01*
X158403000Y-100135000D01*
G75*
G02*
X158303000Y-100235000I-100000J0D01*
G01*
X157028000Y-100235000D01*
G75*
G02*
X156928000Y-100135000I0J100000D01*
G01*
G37*
G36*
G01*
X156928000Y-99485000D02*
X156928000Y-99285000D01*
G75*
G02*
X157028000Y-99185000I100000J0D01*
G01*
X158303000Y-99185000D01*
G75*
G02*
X158403000Y-99285000I0J-100000D01*
G01*
X158403000Y-99485000D01*
G75*
G02*
X158303000Y-99585000I-100000J0D01*
G01*
X157028000Y-99585000D01*
G75*
G02*
X156928000Y-99485000I0J100000D01*
G01*
G37*
G36*
G01*
X156928000Y-98835000D02*
X156928000Y-98635000D01*
G75*
G02*
X157028000Y-98535000I100000J0D01*
G01*
X158303000Y-98535000D01*
G75*
G02*
X158403000Y-98635000I0J-100000D01*
G01*
X158403000Y-98835000D01*
G75*
G02*
X158303000Y-98935000I-100000J0D01*
G01*
X157028000Y-98935000D01*
G75*
G02*
X156928000Y-98835000I0J100000D01*
G01*
G37*
G36*
G01*
X156928000Y-98185000D02*
X156928000Y-97985000D01*
G75*
G02*
X157028000Y-97885000I100000J0D01*
G01*
X158303000Y-97885000D01*
G75*
G02*
X158403000Y-97985000I0J-100000D01*
G01*
X158403000Y-98185000D01*
G75*
G02*
X158303000Y-98285000I-100000J0D01*
G01*
X157028000Y-98285000D01*
G75*
G02*
X156928000Y-98185000I0J100000D01*
G01*
G37*
G36*
G01*
X156928000Y-97535000D02*
X156928000Y-97335000D01*
G75*
G02*
X157028000Y-97235000I100000J0D01*
G01*
X158303000Y-97235000D01*
G75*
G02*
X158403000Y-97335000I0J-100000D01*
G01*
X158403000Y-97535000D01*
G75*
G02*
X158303000Y-97635000I-100000J0D01*
G01*
X157028000Y-97635000D01*
G75*
G02*
X156928000Y-97535000I0J100000D01*
G01*
G37*
G36*
G01*
X156928000Y-96885000D02*
X156928000Y-96685000D01*
G75*
G02*
X157028000Y-96585000I100000J0D01*
G01*
X158303000Y-96585000D01*
G75*
G02*
X158403000Y-96685000I0J-100000D01*
G01*
X158403000Y-96885000D01*
G75*
G02*
X158303000Y-96985000I-100000J0D01*
G01*
X157028000Y-96985000D01*
G75*
G02*
X156928000Y-96885000I0J100000D01*
G01*
G37*
G36*
G01*
X156928000Y-96235000D02*
X156928000Y-96035000D01*
G75*
G02*
X157028000Y-95935000I100000J0D01*
G01*
X158303000Y-95935000D01*
G75*
G02*
X158403000Y-96035000I0J-100000D01*
G01*
X158403000Y-96235000D01*
G75*
G02*
X158303000Y-96335000I-100000J0D01*
G01*
X157028000Y-96335000D01*
G75*
G02*
X156928000Y-96235000I0J100000D01*
G01*
G37*
D18*
X158657000Y-90468000D03*
X158007000Y-90468000D03*
X157357000Y-90468000D03*
X156707000Y-90468000D03*
X156057000Y-90468000D03*
X155407000Y-90468000D03*
X154757000Y-90468000D03*
X154107000Y-90468000D03*
X153457000Y-90468000D03*
X152807000Y-90468000D03*
X152157000Y-90468000D03*
X151507000Y-90468000D03*
X150857000Y-90468000D03*
X150207000Y-90468000D03*
X150207000Y-83268000D03*
X150857000Y-83268000D03*
X151507000Y-83268000D03*
X152157000Y-83268000D03*
X152807000Y-83268000D03*
X153457000Y-83268000D03*
X154107000Y-83268000D03*
X154757000Y-83268000D03*
X155407000Y-83268000D03*
X156057000Y-83268000D03*
X156707000Y-83268000D03*
X157357000Y-83268000D03*
X158007000Y-83268000D03*
X158657000Y-83268000D03*
D19*
X162924000Y-77724000D03*
X160154000Y-77724000D03*
X157384000Y-77724000D03*
X154614000Y-77724000D03*
X151844000Y-77724000D03*
X149074000Y-77724000D03*
X146304000Y-77724000D03*
X143534000Y-77724000D03*
X140764000Y-77724000D03*
X137994000Y-77724000D03*
X135224000Y-77724000D03*
X132454000Y-77724000D03*
X129684000Y-77724000D03*
D20*
X129540000Y-114890000D03*
X129540000Y-118790000D03*
X128270000Y-114890000D03*
X128270000Y-118790000D03*
X127000000Y-114890000D03*
X127000000Y-118790000D03*
X125730000Y-114890000D03*
X125730000Y-118790000D03*
X124460000Y-114890000D03*
X124460000Y-118790000D03*
D21*
X154356000Y-120184000D03*
X145706000Y-120184000D03*
D22*
X154356000Y-116804000D03*
X145706000Y-116804000D03*
D23*
X153011000Y-117149000D03*
X152161000Y-117149000D03*
X151311000Y-117149000D03*
X150461000Y-117149000D03*
X149611000Y-117149000D03*
X148761000Y-117149000D03*
X147911000Y-117149000D03*
X147056000Y-117149000D03*
X153006000Y-115824000D03*
X152156000Y-115824000D03*
X151306000Y-115824000D03*
X150456000Y-115824000D03*
X149606000Y-115824000D03*
X147906000Y-115824000D03*
X147056000Y-115824000D03*
X148756000Y-115824000D03*
D24*
X133568000Y-118796000D03*
X133568000Y-120396000D03*
X137668000Y-118796000D03*
X137668000Y-120396000D03*
G36*
G01*
X140175000Y-118930000D02*
X139225000Y-118930000D01*
G75*
G02*
X138975000Y-118680000I0J250000D01*
G01*
X138975000Y-118005000D01*
G75*
G02*
X139225000Y-117755000I250000J0D01*
G01*
X140175000Y-117755000D01*
G75*
G02*
X140425000Y-118005000I0J-250000D01*
G01*
X140425000Y-118680000D01*
G75*
G02*
X140175000Y-118930000I-250000J0D01*
G01*
G37*
G36*
G01*
X140175000Y-121005000D02*
X139225000Y-121005000D01*
G75*
G02*
X138975000Y-120755000I0J250000D01*
G01*
X138975000Y-120080000D01*
G75*
G02*
X139225000Y-119830000I250000J0D01*
G01*
X140175000Y-119830000D01*
G75*
G02*
X140425000Y-120080000I0J-250000D01*
G01*
X140425000Y-120755000D01*
G75*
G02*
X140175000Y-121005000I-250000J0D01*
G01*
G37*
G36*
G01*
X135091500Y-114267000D02*
X135091500Y-113317000D01*
G75*
G02*
X135341500Y-113067000I250000J0D01*
G01*
X136016500Y-113067000D01*
G75*
G02*
X136266500Y-113317000I0J-250000D01*
G01*
X136266500Y-114267000D01*
G75*
G02*
X136016500Y-114517000I-250000J0D01*
G01*
X135341500Y-114517000D01*
G75*
G02*
X135091500Y-114267000I0J250000D01*
G01*
G37*
G36*
G01*
X133016500Y-114267000D02*
X133016500Y-113317000D01*
G75*
G02*
X133266500Y-113067000I250000J0D01*
G01*
X133941500Y-113067000D01*
G75*
G02*
X134191500Y-113317000I0J-250000D01*
G01*
X134191500Y-114267000D01*
G75*
G02*
X133941500Y-114517000I-250000J0D01*
G01*
X133266500Y-114517000D01*
G75*
G02*
X133016500Y-114267000I0J250000D01*
G01*
G37*
D25*
X160968000Y-110490000D03*
D26*
X167268000Y-108210000D03*
X167268000Y-110490000D03*
X167268000Y-112770000D03*
G36*
G01*
X135004000Y-116274001D02*
X135004000Y-115373999D01*
G75*
G02*
X135253999Y-115124000I249999J0D01*
G01*
X135954001Y-115124000D01*
G75*
G02*
X136204000Y-115373999I0J-249999D01*
G01*
X136204000Y-116274001D01*
G75*
G02*
X135954001Y-116524000I-249999J0D01*
G01*
X135253999Y-116524000D01*
G75*
G02*
X135004000Y-116274001I0J249999D01*
G01*
G37*
G36*
G01*
X133004000Y-116274001D02*
X133004000Y-115373999D01*
G75*
G02*
X133253999Y-115124000I249999J0D01*
G01*
X133954001Y-115124000D01*
G75*
G02*
X134204000Y-115373999I0J-249999D01*
G01*
X134204000Y-116274001D01*
G75*
G02*
X133954001Y-116524000I-249999J0D01*
G01*
X133253999Y-116524000D01*
G75*
G02*
X133004000Y-116274001I0J249999D01*
G01*
G37*
G36*
G01*
X166007000Y-118627001D02*
X166007000Y-116576999D01*
G75*
G02*
X166256999Y-116327000I249999J0D01*
G01*
X168007001Y-116327000D01*
G75*
G02*
X168257000Y-116576999I0J-249999D01*
G01*
X168257000Y-118627001D01*
G75*
G02*
X168007001Y-118877000I-249999J0D01*
G01*
X166256999Y-118877000D01*
G75*
G02*
X166007000Y-118627001I0J249999D01*
G01*
G37*
G36*
G01*
X159607000Y-118627001D02*
X159607000Y-116576999D01*
G75*
G02*
X159856999Y-116327000I249999J0D01*
G01*
X161607001Y-116327000D01*
G75*
G02*
X161857000Y-116576999I0J-249999D01*
G01*
X161857000Y-118627001D01*
G75*
G02*
X161607001Y-118877000I-249999J0D01*
G01*
X159856999Y-118877000D01*
G75*
G02*
X159607000Y-118627001I0J249999D01*
G01*
G37*
M02*
