%FSLAX45Y45*%
G04 Gerber Fmt 4.5, Leading zero omitted, Abs format (unit mm)*
G04 Created by KiCad (PCBNEW 5.1.10) date 2021-07-04 17:42:56*
%MOMM*%
%LPD*%
G01*
G04 APERTURE LIST*
%TA.AperFunction,Profile*%
%ADD10C,0.100000*%
%TD*%
%ADD11C,0.200000*%
%ADD12C,0.300000*%
G04 APERTURE END LIST*
D10*
X17043400Y-7569200D02*
G75*
G02*
X17170400Y-7696200I0J-127000D01*
G01*
X17170400Y-12065000D02*
G75*
G02*
X17043400Y-12192000I-127000J0D01*
G01*
X12268200Y-12192000D02*
G75*
G02*
X12141200Y-12065000I0J127000D01*
G01*
X12141200Y-7696200D02*
G75*
G02*
X12268200Y-7569200I127000J0D01*
G01*
X17170400Y-7696200D02*
X17170400Y-12065000D01*
X12268200Y-7569200D02*
X17043400Y-7569200D01*
X12141200Y-12065000D02*
X12141200Y-7696200D01*
X17043400Y-12192000D02*
X12268200Y-12192000D01*
D11*
X14147900Y-11012700D02*
X14237900Y-11102700D01*
X14237900Y-11012700D02*
X14147900Y-11102700D01*
X14827900Y-11012700D02*
X14917900Y-11102700D01*
X14917900Y-11012700D02*
X14827900Y-11102700D01*
D12*
X12422628Y-12662714D02*
X12422628Y-12362714D01*
X12494057Y-12362714D01*
X12536914Y-12377000D01*
X12565486Y-12405571D01*
X12579771Y-12434143D01*
X12594057Y-12491286D01*
X12594057Y-12534143D01*
X12579771Y-12591286D01*
X12565486Y-12619857D01*
X12536914Y-12648429D01*
X12494057Y-12662714D01*
X12422628Y-12662714D01*
X12722628Y-12662714D02*
X12722628Y-12462714D01*
X12722628Y-12519857D02*
X12736914Y-12491286D01*
X12751200Y-12477000D01*
X12779771Y-12462714D01*
X12808343Y-12462714D01*
X12908343Y-12662714D02*
X12908343Y-12462714D01*
X12908343Y-12362714D02*
X12894057Y-12377000D01*
X12908343Y-12391286D01*
X12922628Y-12377000D01*
X12908343Y-12362714D01*
X12908343Y-12391286D01*
X13094057Y-12662714D02*
X13065486Y-12648429D01*
X13051200Y-12619857D01*
X13051200Y-12362714D01*
X13251200Y-12662714D02*
X13222628Y-12648429D01*
X13208343Y-12619857D01*
X13208343Y-12362714D01*
X13594057Y-12662714D02*
X13594057Y-12362714D01*
X13694057Y-12577000D01*
X13794057Y-12362714D01*
X13794057Y-12662714D01*
X14065486Y-12662714D02*
X14065486Y-12505571D01*
X14051200Y-12477000D01*
X14022628Y-12462714D01*
X13965486Y-12462714D01*
X13936914Y-12477000D01*
X14065486Y-12648429D02*
X14036914Y-12662714D01*
X13965486Y-12662714D01*
X13936914Y-12648429D01*
X13922628Y-12619857D01*
X13922628Y-12591286D01*
X13936914Y-12562714D01*
X13965486Y-12548429D01*
X14036914Y-12548429D01*
X14065486Y-12534143D01*
X14208343Y-12462714D02*
X14208343Y-12762714D01*
X14208343Y-12477000D02*
X14236914Y-12462714D01*
X14294057Y-12462714D01*
X14322628Y-12477000D01*
X14336914Y-12491286D01*
X14351200Y-12519857D01*
X14351200Y-12605571D01*
X14336914Y-12634143D01*
X14322628Y-12648429D01*
X14294057Y-12662714D01*
X14236914Y-12662714D01*
X14208343Y-12648429D01*
X14479771Y-12634143D02*
X14494057Y-12648429D01*
X14479771Y-12662714D01*
X14465486Y-12648429D01*
X14479771Y-12634143D01*
X14479771Y-12662714D01*
X14479771Y-12477000D02*
X14494057Y-12491286D01*
X14479771Y-12505571D01*
X14465486Y-12491286D01*
X14479771Y-12477000D01*
X14479771Y-12505571D01*
X12046200Y-13112000D02*
X12136200Y-13202000D01*
X12136200Y-13112000D02*
X12046200Y-13202000D01*
X12479771Y-12992714D02*
X12508343Y-12992714D01*
X12536914Y-13007000D01*
X12551200Y-13021286D01*
X12565486Y-13049857D01*
X12579771Y-13107000D01*
X12579771Y-13178429D01*
X12565486Y-13235571D01*
X12551200Y-13264143D01*
X12536914Y-13278429D01*
X12508343Y-13292714D01*
X12479771Y-13292714D01*
X12451200Y-13278429D01*
X12436914Y-13264143D01*
X12422628Y-13235571D01*
X12408343Y-13178429D01*
X12408343Y-13107000D01*
X12422628Y-13049857D01*
X12436914Y-13021286D01*
X12451200Y-13007000D01*
X12479771Y-12992714D01*
X12708343Y-13264143D02*
X12722628Y-13278429D01*
X12708343Y-13292714D01*
X12694057Y-13278429D01*
X12708343Y-13264143D01*
X12708343Y-13292714D01*
X12865486Y-13292714D02*
X12922628Y-13292714D01*
X12951200Y-13278429D01*
X12965486Y-13264143D01*
X12994057Y-13221286D01*
X13008343Y-13164143D01*
X13008343Y-13049857D01*
X12994057Y-13021286D01*
X12979771Y-13007000D01*
X12951200Y-12992714D01*
X12894057Y-12992714D01*
X12865486Y-13007000D01*
X12851200Y-13021286D01*
X12836914Y-13049857D01*
X12836914Y-13121286D01*
X12851200Y-13149857D01*
X12865486Y-13164143D01*
X12894057Y-13178429D01*
X12951200Y-13178429D01*
X12979771Y-13164143D01*
X12994057Y-13149857D01*
X13008343Y-13121286D01*
X13194057Y-12992714D02*
X13222628Y-12992714D01*
X13251200Y-13007000D01*
X13265486Y-13021286D01*
X13279771Y-13049857D01*
X13294057Y-13107000D01*
X13294057Y-13178429D01*
X13279771Y-13235571D01*
X13265486Y-13264143D01*
X13251200Y-13278429D01*
X13222628Y-13292714D01*
X13194057Y-13292714D01*
X13165486Y-13278429D01*
X13151200Y-13264143D01*
X13136914Y-13235571D01*
X13122628Y-13178429D01*
X13122628Y-13107000D01*
X13136914Y-13049857D01*
X13151200Y-13021286D01*
X13165486Y-13007000D01*
X13194057Y-12992714D01*
X13479771Y-12992714D02*
X13508343Y-12992714D01*
X13536914Y-13007000D01*
X13551200Y-13021286D01*
X13565486Y-13049857D01*
X13579771Y-13107000D01*
X13579771Y-13178429D01*
X13565486Y-13235571D01*
X13551200Y-13264143D01*
X13536914Y-13278429D01*
X13508343Y-13292714D01*
X13479771Y-13292714D01*
X13451200Y-13278429D01*
X13436914Y-13264143D01*
X13422628Y-13235571D01*
X13408343Y-13178429D01*
X13408343Y-13107000D01*
X13422628Y-13049857D01*
X13436914Y-13021286D01*
X13451200Y-13007000D01*
X13479771Y-12992714D01*
X13708343Y-13292714D02*
X13708343Y-13092714D01*
X13708343Y-13121286D02*
X13722628Y-13107000D01*
X13751200Y-13092714D01*
X13794057Y-13092714D01*
X13822628Y-13107000D01*
X13836914Y-13135571D01*
X13836914Y-13292714D01*
X13836914Y-13135571D02*
X13851200Y-13107000D01*
X13879771Y-13092714D01*
X13922628Y-13092714D01*
X13951200Y-13107000D01*
X13965486Y-13135571D01*
X13965486Y-13292714D01*
X14108343Y-13292714D02*
X14108343Y-13092714D01*
X14108343Y-13121286D02*
X14122628Y-13107000D01*
X14151200Y-13092714D01*
X14194057Y-13092714D01*
X14222628Y-13107000D01*
X14236914Y-13135571D01*
X14236914Y-13292714D01*
X14236914Y-13135571D02*
X14251200Y-13107000D01*
X14279771Y-13092714D01*
X14322628Y-13092714D01*
X14351200Y-13107000D01*
X14365486Y-13135571D01*
X14365486Y-13292714D01*
X14951200Y-12978429D02*
X14694057Y-13364143D01*
X15336914Y-12992714D02*
X15365486Y-12992714D01*
X15394057Y-13007000D01*
X15408343Y-13021286D01*
X15422628Y-13049857D01*
X15436914Y-13107000D01*
X15436914Y-13178429D01*
X15422628Y-13235571D01*
X15408343Y-13264143D01*
X15394057Y-13278429D01*
X15365486Y-13292714D01*
X15336914Y-13292714D01*
X15308343Y-13278429D01*
X15294057Y-13264143D01*
X15279771Y-13235571D01*
X15265486Y-13178429D01*
X15265486Y-13107000D01*
X15279771Y-13049857D01*
X15294057Y-13021286D01*
X15308343Y-13007000D01*
X15336914Y-12992714D01*
X15565486Y-13264143D02*
X15579771Y-13278429D01*
X15565486Y-13292714D01*
X15551200Y-13278429D01*
X15565486Y-13264143D01*
X15565486Y-13292714D01*
X15765486Y-12992714D02*
X15794057Y-12992714D01*
X15822628Y-13007000D01*
X15836914Y-13021286D01*
X15851200Y-13049857D01*
X15865486Y-13107000D01*
X15865486Y-13178429D01*
X15851200Y-13235571D01*
X15836914Y-13264143D01*
X15822628Y-13278429D01*
X15794057Y-13292714D01*
X15765486Y-13292714D01*
X15736914Y-13278429D01*
X15722628Y-13264143D01*
X15708343Y-13235571D01*
X15694057Y-13178429D01*
X15694057Y-13107000D01*
X15708343Y-13049857D01*
X15722628Y-13021286D01*
X15736914Y-13007000D01*
X15765486Y-12992714D01*
X15965486Y-12992714D02*
X16151200Y-12992714D01*
X16051200Y-13107000D01*
X16094057Y-13107000D01*
X16122628Y-13121286D01*
X16136914Y-13135571D01*
X16151200Y-13164143D01*
X16151200Y-13235571D01*
X16136914Y-13264143D01*
X16122628Y-13278429D01*
X16094057Y-13292714D01*
X16008343Y-13292714D01*
X15979771Y-13278429D01*
X15965486Y-13264143D01*
X16422628Y-12992714D02*
X16279771Y-12992714D01*
X16265486Y-13135571D01*
X16279771Y-13121286D01*
X16308343Y-13107000D01*
X16379771Y-13107000D01*
X16408343Y-13121286D01*
X16422628Y-13135571D01*
X16436914Y-13164143D01*
X16436914Y-13235571D01*
X16422628Y-13264143D01*
X16408343Y-13278429D01*
X16379771Y-13292714D01*
X16308343Y-13292714D01*
X16279771Y-13278429D01*
X16265486Y-13264143D01*
X16694057Y-13092714D02*
X16694057Y-13292714D01*
X16622628Y-12978429D02*
X16551200Y-13192714D01*
X16736914Y-13192714D01*
X16836914Y-12992714D02*
X16836914Y-13049857D01*
X16951200Y-12992714D02*
X16951200Y-13049857D01*
X17394057Y-13407000D02*
X17379771Y-13392714D01*
X17351200Y-13349857D01*
X17336914Y-13321286D01*
X17322628Y-13278429D01*
X17308343Y-13207000D01*
X17308343Y-13149857D01*
X17322628Y-13078429D01*
X17336914Y-13035571D01*
X17351200Y-13007000D01*
X17379771Y-12964143D01*
X17394057Y-12949857D01*
X17494057Y-13021286D02*
X17508343Y-13007000D01*
X17536914Y-12992714D01*
X17608343Y-12992714D01*
X17636914Y-13007000D01*
X17651200Y-13021286D01*
X17665486Y-13049857D01*
X17665486Y-13078429D01*
X17651200Y-13121286D01*
X17479771Y-13292714D01*
X17665486Y-13292714D01*
X18022628Y-13292714D02*
X18022628Y-12992714D01*
X18151200Y-13292714D02*
X18151200Y-13135571D01*
X18136914Y-13107000D01*
X18108343Y-13092714D01*
X18065486Y-13092714D01*
X18036914Y-13107000D01*
X18022628Y-13121286D01*
X18336914Y-13292714D02*
X18308343Y-13278429D01*
X18294057Y-13264143D01*
X18279771Y-13235571D01*
X18279771Y-13149857D01*
X18294057Y-13121286D01*
X18308343Y-13107000D01*
X18336914Y-13092714D01*
X18379771Y-13092714D01*
X18408343Y-13107000D01*
X18422628Y-13121286D01*
X18436914Y-13149857D01*
X18436914Y-13235571D01*
X18422628Y-13264143D01*
X18408343Y-13278429D01*
X18379771Y-13292714D01*
X18336914Y-13292714D01*
X18608343Y-13292714D02*
X18579771Y-13278429D01*
X18565486Y-13249857D01*
X18565486Y-12992714D01*
X18836914Y-13278429D02*
X18808343Y-13292714D01*
X18751200Y-13292714D01*
X18722628Y-13278429D01*
X18708343Y-13249857D01*
X18708343Y-13135571D01*
X18722628Y-13107000D01*
X18751200Y-13092714D01*
X18808343Y-13092714D01*
X18836914Y-13107000D01*
X18851200Y-13135571D01*
X18851200Y-13164143D01*
X18708343Y-13192714D01*
X18965486Y-13278429D02*
X18994057Y-13292714D01*
X19051200Y-13292714D01*
X19079771Y-13278429D01*
X19094057Y-13249857D01*
X19094057Y-13235571D01*
X19079771Y-13207000D01*
X19051200Y-13192714D01*
X19008343Y-13192714D01*
X18979771Y-13178429D01*
X18965486Y-13149857D01*
X18965486Y-13135571D01*
X18979771Y-13107000D01*
X19008343Y-13092714D01*
X19051200Y-13092714D01*
X19079771Y-13107000D01*
X19194057Y-13407000D02*
X19208343Y-13392714D01*
X19236914Y-13349857D01*
X19251200Y-13321286D01*
X19265486Y-13278429D01*
X19279771Y-13207000D01*
X19279771Y-13149857D01*
X19265486Y-13078429D01*
X19251200Y-13035571D01*
X19236914Y-13007000D01*
X19208343Y-12964143D01*
X19194057Y-12949857D01*
X19736914Y-13407000D02*
X19722628Y-13392714D01*
X19694057Y-13349857D01*
X19679771Y-13321286D01*
X19665486Y-13278429D01*
X19651200Y-13207000D01*
X19651200Y-13149857D01*
X19665486Y-13078429D01*
X19679771Y-13035571D01*
X19694057Y-13007000D01*
X19722628Y-12964143D01*
X19736914Y-12949857D01*
X19851200Y-13092714D02*
X19851200Y-13292714D01*
X19851200Y-13121286D02*
X19865486Y-13107000D01*
X19894057Y-13092714D01*
X19936914Y-13092714D01*
X19965486Y-13107000D01*
X19979771Y-13135571D01*
X19979771Y-13292714D01*
X20165486Y-13292714D02*
X20136914Y-13278429D01*
X20122628Y-13264143D01*
X20108343Y-13235571D01*
X20108343Y-13149857D01*
X20122628Y-13121286D01*
X20136914Y-13107000D01*
X20165486Y-13092714D01*
X20208343Y-13092714D01*
X20236914Y-13107000D01*
X20251200Y-13121286D01*
X20265486Y-13149857D01*
X20265486Y-13235571D01*
X20251200Y-13264143D01*
X20236914Y-13278429D01*
X20208343Y-13292714D01*
X20165486Y-13292714D01*
X20351200Y-13092714D02*
X20465486Y-13092714D01*
X20394057Y-12992714D02*
X20394057Y-13249857D01*
X20408343Y-13278429D01*
X20436914Y-13292714D01*
X20465486Y-13292714D01*
X20794057Y-13092714D02*
X20794057Y-13392714D01*
X20794057Y-13107000D02*
X20822628Y-13092714D01*
X20879771Y-13092714D01*
X20908343Y-13107000D01*
X20922628Y-13121286D01*
X20936914Y-13149857D01*
X20936914Y-13235571D01*
X20922628Y-13264143D01*
X20908343Y-13278429D01*
X20879771Y-13292714D01*
X20822628Y-13292714D01*
X20794057Y-13278429D01*
X21108343Y-13292714D02*
X21079771Y-13278429D01*
X21065486Y-13249857D01*
X21065486Y-12992714D01*
X21351200Y-13292714D02*
X21351200Y-13135571D01*
X21336914Y-13107000D01*
X21308343Y-13092714D01*
X21251200Y-13092714D01*
X21222628Y-13107000D01*
X21351200Y-13278429D02*
X21322628Y-13292714D01*
X21251200Y-13292714D01*
X21222628Y-13278429D01*
X21208343Y-13249857D01*
X21208343Y-13221286D01*
X21222628Y-13192714D01*
X21251200Y-13178429D01*
X21322628Y-13178429D01*
X21351200Y-13164143D01*
X21451200Y-13092714D02*
X21565486Y-13092714D01*
X21494057Y-12992714D02*
X21494057Y-13249857D01*
X21508343Y-13278429D01*
X21536914Y-13292714D01*
X21565486Y-13292714D01*
X21779771Y-13278429D02*
X21751200Y-13292714D01*
X21694057Y-13292714D01*
X21665486Y-13278429D01*
X21651200Y-13249857D01*
X21651200Y-13135571D01*
X21665486Y-13107000D01*
X21694057Y-13092714D01*
X21751200Y-13092714D01*
X21779771Y-13107000D01*
X21794057Y-13135571D01*
X21794057Y-13164143D01*
X21651200Y-13192714D01*
X22051200Y-13292714D02*
X22051200Y-12992714D01*
X22051200Y-13278429D02*
X22022628Y-13292714D01*
X21965486Y-13292714D01*
X21936914Y-13278429D01*
X21922628Y-13264143D01*
X21908343Y-13235571D01*
X21908343Y-13149857D01*
X21922628Y-13121286D01*
X21936914Y-13107000D01*
X21965486Y-13092714D01*
X22022628Y-13092714D01*
X22051200Y-13107000D01*
X22165486Y-13407000D02*
X22179771Y-13392714D01*
X22208343Y-13349857D01*
X22222628Y-13321286D01*
X22236914Y-13278429D01*
X22251200Y-13207000D01*
X22251200Y-13149857D01*
X22236914Y-13078429D01*
X22222628Y-13035571D01*
X22208343Y-13007000D01*
X22179771Y-12964143D01*
X22165486Y-12949857D01*
M02*
